<svg width="24" height="24" viewBox="0 0 24 24" fill="none" xmlns="http://www.w3.org/2000/svg">
<path d="M20.25 5V9C20.25 9.28333 20.154 9.521 19.962 9.713C19.77 9.905 19.5327 10.0007 19.25 10C18.9673 9.99933 18.73 9.90333 18.538 9.712C18.346 9.52067 18.25 9.28333 18.25 9V7.425L14.275 11.375C14.5917 11.8417 14.8333 12.3377 15 12.863C15.1667 13.3883 15.25 13.934 15.25 14.5C15.25 16.0333 14.7167 17.3333 13.65 18.4C12.5833 19.4667 11.2833 20 9.75 20C8.21667 20 6.91667 19.4667 5.85 18.4C4.78333 17.3333 4.25 16.0333 4.25 14.5C4.25 12.9667 4.78333 11.6667 5.85 10.6C6.91667 9.53333 8.21667 9 9.75 9C10.3 9 10.8417 9.079 11.375 9.237C11.9083 9.395 12.4 9.641 12.85 9.975L16.825 6H15.25C14.9667 6 14.7293 5.904 14.538 5.712C14.3467 5.52 14.2507 5.28267 14.25 5C14.2493 4.71733 14.3453 4.48 14.538 4.288C14.7307 4.096 14.968 4 15.25 4H19.25C19.5333 4 19.771 4.096 19.963 4.288C20.155 4.48 20.2507 4.71733 20.25 5ZM9.75 11C8.78333 11 7.95833 11.3417 7.275 12.025C6.59167 12.7083 6.25 13.5333 6.25 14.5C6.25 15.4667 6.59167 16.2917 7.275 16.975C7.95833 17.6583 8.78333 18 9.75 18C10.7167 18 11.5417 17.6583 12.225 16.975C12.9083 16.2917 13.25 15.4667 13.25 14.5C13.25 13.5333 12.9083 12.7083 12.225 12.025C11.5417 11.3417 10.7167 11 9.75 11Z" fill="#839EFF"/>
</svg>
