<svg width="24" height="24" viewBox="0 0 24 24" fill="none" xmlns="http://www.w3.org/2000/svg">
<path d="M11.7828 4C10.2831 4.00027 8.81158 4.39366 7.52525 5.13821C6.23892 5.88276 5.18602 6.95055 4.47884 8.22767C3.77167 9.50478 3.43676 10.9433 3.50984 12.3898C3.58292 13.8363 4.06125 15.2366 4.8938 16.4411C5.72635 17.6457 6.88189 18.6095 8.23717 19.2296C9.59244 19.8497 11.0966 20.1029 12.5892 19.9621C14.0818 19.8214 15.5069 19.2921 16.7124 18.4306C17.9179 17.5691 18.8586 16.4077 19.4342 15.0704C19.7167 14.4144 19.0398 13.7552 18.3589 14.0224C17.1918 14.4789 15.8959 14.526 14.6965 14.1555C13.4971 13.785 12.4702 13.0203 11.7942 11.9944C11.1182 10.9685 10.8358 9.74622 10.9963 8.54012C11.1568 7.33402 11.7499 6.22037 12.6725 5.3928L12.7363 5.3288C13.1928 4.8248 12.8299 4.0064 12.1084 4.0064H11.888L11.8317 4.0016L11.7828 4Z" fill="#4B8B90"/>
</svg>
