<svg width="24" height="24" viewBox="0 0 24 24" fill="none" xmlns="http://www.w3.org/2000/svg">
<path d="M10.25 19H9.25C8.96667 19 8.72933 18.904 8.538 18.712C8.34667 18.52 8.25067 18.2827 8.25 18C8.24933 17.7173 8.34533 17.48 8.538 17.288C8.73067 17.096 8.968 17 9.25 17H10.25V14.9C8.93333 14.6667 7.854 14.0373 7.012 13.012C6.17 11.9867 5.74933 10.7993 5.75 9.45C5.75 7.93333 6.28767 6.646 7.363 5.588C8.43833 4.53 9.734 4.00067 11.25 4C12.766 3.99933 14.062 4.52867 15.138 5.588C16.214 6.64733 16.7513 7.93467 16.75 9.45C16.75 10.8 16.329 11.9877 15.487 13.013C14.645 14.0383 13.566 14.6673 12.25 14.9V17H13.25C13.5333 17 13.771 17.096 13.963 17.288C14.155 17.48 14.2507 17.7173 14.25 18C14.2493 18.2827 14.1533 18.5203 13.962 18.713C13.7707 18.9057 13.5333 19.0013 13.25 19H12.25V20C12.25 20.2833 12.154 20.521 11.962 20.713C11.77 20.905 11.5327 21.0007 11.25 21C10.9673 20.9993 10.73 20.9033 10.538 20.712C10.346 20.5207 10.25 20.2833 10.25 20V19ZM11.25 13C12.2167 13 13.0417 12.6583 13.725 11.975C14.4083 11.2917 14.75 10.4667 14.75 9.5C14.75 8.53333 14.4083 7.70833 13.725 7.025C13.0417 6.34167 12.2167 6 11.25 6C10.2833 6 9.45833 6.34167 8.775 7.025C8.09167 7.70833 7.75 8.53333 7.75 9.5C7.75 10.4667 8.09167 11.2917 8.775 11.975C9.45833 12.6583 10.2833 13 11.25 13Z" fill="#944857"/>
</svg>
