<svg width="16" height="16" viewBox="0 0 16 16" fill="none" xmlns="http://www.w3.org/2000/svg">
<path d="M16 1V5C16 5.28333 15.904 5.521 15.712 5.713C15.52 5.905 15.2827 6.00067 15 6C14.7173 5.99933 14.48 5.90333 14.288 5.712C14.096 5.52067 14 5.28333 14 5V3.425L10.025 7.375C10.3417 7.84167 10.5833 8.33767 10.75 8.863C10.9167 9.38833 11 9.934 11 10.5C11 12.0333 10.4667 13.3333 9.4 14.4C8.33333 15.4667 7.03333 16 5.5 16C3.96667 16 2.66667 15.4667 1.6 14.4C0.533333 13.3333 0 12.0333 0 10.5C0 8.96667 0.533333 7.66667 1.6 6.6C2.66667 5.53333 3.96667 5 5.5 5C6.05 5 6.59167 5.079 7.125 5.237C7.65833 5.395 8.15 5.641 8.6 5.975L12.575 2H11C10.7167 2 10.4793 1.904 10.288 1.712C10.0967 1.52 10.0007 1.28267 10 1C9.99933 0.717333 10.0953 0.48 10.288 0.288C10.4807 0.0960001 10.718 0 11 0H15C15.2833 0 15.521 0.0960001 15.713 0.288C15.905 0.48 16.0007 0.717333 16 1ZM5.5 7C4.53333 7 3.70833 7.34167 3.025 8.025C2.34167 8.70833 2 9.53333 2 10.5C2 11.4667 2.34167 12.2917 3.025 12.975C3.70833 13.6583 4.53333 14 5.5 14C6.46667 14 7.29167 13.6583 7.975 12.975C8.65833 12.2917 9 11.4667 9 10.5C9 9.53333 8.65833 8.70833 7.975 8.025C7.29167 7.34167 6.46667 7 5.5 7Z" fill="#5765A5"/>
</svg>
